<svg version="1.1" xmlns="http://www.w3.org/2000/svg" viewBox="0 0 1359 1009.1219341601359" width="1359" height="1009.1219341601359">
  <!-- svg-source:excalidraw -->
  
  <defs>
    <style class="style-fonts">
      @font-face {
        font-family: "Virgil";
        src: url("https://excalidraw.com/Virgil.woff2");
      }
      @font-face {
        font-family: "Cascadia";
        src: url("https://excalidraw.com/Cascadia.woff2");
      }
    </style>
  </defs>
  <g stroke-linecap="round" transform="translate(109 185.52193416013577) rotate(0 592.5 326.5)"><path d="M799.35 21.19 C834.12 22.61, 864.38 36.54, 894.78 46.26 C925.17 55.98, 955.06 66.75, 981.7 79.51 C1008.34 92.27, 1032.63 107.66, 1054.63 122.82 C1076.62 137.99, 1096.7 153.55, 1113.66 170.48 C1130.62 187.4, 1145.37 205.91, 1156.38 224.38 C1167.39 242.85, 1175.14 262, 1179.72 281.29 C1184.3 300.58, 1185.47 320.47, 1183.84 340.09 C1182.21 359.72, 1177.57 379.89, 1169.94 399.02 C1162.31 418.16, 1151.91 437, 1138.08 454.9 C1124.26 472.8, 1106.37 490.35, 1087.01 506.43 C1067.64 522.5, 1046.04 537.46, 1021.89 551.36 C997.74 565.26, 970.6 578.47, 942.12 589.83 C913.64 601.19, 882.77 611, 851.01 619.51 C819.26 628.02, 785.72 635.4, 751.6 640.89 C717.48 646.38, 681.45 650.61, 646.28 652.45 C611.11 654.3, 575.49 653.76, 540.58 651.94 C505.66 650.11, 470.94 646.66, 436.81 641.48 C402.69 636.3, 367.86 629.33, 335.84 620.84 C303.83 612.36, 273.29 601.85, 244.72 590.57 C216.16 579.29, 188.62 567.22, 164.45 553.17 C140.27 539.12, 119.01 522.5, 99.66 506.25 C80.32 490, 62.37 473.26, 48.38 455.67 C34.4 438.09, 23.85 419.8, 15.75 400.72 C7.65 381.64, 1.55 360.89, -0.22 341.2 C-1.98 321.5, 0.29 301.58, 5.16 282.56 C10.03 263.55, 18.08 245.36, 29.02 227.09 C39.96 208.82, 54.29 190.23, 70.77 172.94 C87.26 155.65, 106.07 138.56, 127.94 123.35 C149.81 108.15, 175.61 94.49, 202.01 81.73 C228.4 68.96, 256.33 56.79, 286.31 46.78 C316.29 36.78, 348.7 28.62, 381.89 21.7 C415.08 14.78, 450.55 9.04, 485.43 5.26 C520.31 1.49, 555.94 -0.84, 591.16 -0.96 C626.38 -1.07, 658.94 0.31, 696.75 4.55 C734.57 8.78, 795.55 19.43, 818.03 24.45 C840.5 29.48, 835.28 29.58, 831.61 34.7 M349.45 27.68 C376.08 15.38, 416.95 14.71, 451.11 10.17 C485.26 5.63, 519.16 1.65, 554.35 0.44 C589.54 -0.77, 626.76 0.45, 662.24 2.92 C697.72 5.38, 733.43 9.56, 767.24 15.22 C801.04 20.88, 834 27.91, 865.09 36.9 C896.18 45.88, 925.89 57.2, 953.75 69.14 C981.61 81.09, 1008.44 94.6, 1032.23 108.56 C1056.02 122.52, 1077.81 136.52, 1096.48 152.89 C1115.16 169.26, 1131.35 188.34, 1144.27 206.79 C1157.19 225.23, 1167.45 244.7, 1174 263.58 C1180.55 282.45, 1182.88 300.77, 1183.58 320.03 C1184.27 339.3, 1183.6 360, 1178.18 379.15 C1172.77 398.31, 1163.05 416.44, 1151.09 434.94 C1139.14 453.45, 1123.96 472.97, 1106.45 490.18 C1088.93 507.39, 1068.6 523.62, 1045.99 538.21 C1023.39 552.8, 997.98 565.34, 970.84 577.71 C943.7 590.09, 914.15 602.73, 883.16 612.46 C852.16 622.19, 818.34 629.85, 784.88 636.09 C751.42 642.32, 717.18 646.97, 682.42 649.85 C647.66 652.74, 611.4 653.79, 576.32 653.38 C541.25 652.96, 506.48 651.2, 471.96 647.36 C437.43 643.52, 401.83 638, 369.17 630.32 C336.51 622.65, 305.98 612.1, 275.99 601.31 C246.01 590.53, 215.21 578.76, 189.28 565.61 C163.34 552.45, 141.29 537.75, 120.4 522.4 C99.51 507.04, 80.11 490.55, 63.96 473.47 C47.8 456.39, 33.44 438.54, 23.47 419.91 C13.49 401.28, 7.61 381.11, 4.11 361.71 C0.6 342.31, -0.25 322.92, 2.42 303.49 C5.09 284.06, 11.55 263.97, 20.12 245.12 C28.69 226.28, 39.53 208.31, 53.83 190.41 C68.13 172.52, 85.84 153.69, 105.92 137.74 C125.99 121.79, 149.07 108.2, 174.28 94.72 C199.49 81.25, 228.05 67.95, 257.2 56.89 C286.35 45.83, 332.68 32.09, 349.2 28.36 C365.71 24.63, 352.22 29.68, 356.29 34.51" stroke="#000000" stroke-width="4" fill="none"></path></g><g transform="translate(660.5236071469706 495.3515701027279) rotate(0 41.015625 16.80000000000001)"><text x="41.015625" y="0" font-family="Cascadia, Segoe UI Emoji" font-size="28px" fill="#000000" text-anchor="middle" style="white-space: pre;" direction="ltr" dominant-baseline="text-before-edge">alive</text></g><g stroke-linecap="round" transform="translate(243 449.52193416013574) rotate(0 72.5 72.5)"><path d="M88.39 1.66 C98.53 2.93, 110.05 9.41, 118.37 16.07 C126.7 22.73, 133.97 32.36, 138.35 41.61 C142.73 50.86, 144.8 61.11, 144.65 71.58 C144.51 82.06, 141.87 94.9, 137.48 104.44 C133.08 113.98, 126.41 122.47, 118.3 128.83 C110.19 135.19, 98.98 140.13, 88.83 142.61 C78.68 145.09, 67.7 146.06, 57.39 143.7 C47.08 141.33, 35.34 135.14, 26.95 128.41 C18.57 121.67, 11.58 112.62, 7.09 103.28 C2.59 93.93, 0.02 82.55, -0.01 72.31 C-0.04 62.07, 2.4 51.38, 6.89 41.84 C11.39 32.3, 18.64 21.59, 26.95 15.06 C35.25 8.53, 44.57 4.29, 56.71 2.66 C68.85 1.03, 91 3.57, 99.79 5.28 C108.59 7, 109.75 11.81, 109.48 12.94 M89.73 2.9 C99.76 3.97, 111.64 9.25, 119.73 15.99 C127.82 22.72, 134.03 33.77, 138.27 43.31 C142.51 52.86, 145.17 63.01, 145.19 73.25 C145.21 83.49, 143.11 95.39, 138.4 104.74 C133.68 114.09, 125.6 122.93, 116.89 129.34 C108.18 135.75, 96.62 140.79, 86.14 143.21 C75.66 145.63, 63.98 146.14, 54.01 143.85 C44.03 141.57, 34.43 136.17, 26.31 129.47 C18.19 122.77, 9.64 113.47, 5.27 103.67 C0.91 93.87, -0.33 81.43, 0.13 70.68 C0.59 59.93, 3.3 48.65, 8.05 39.15 C12.8 29.65, 20.32 19.97, 28.63 13.66 C36.94 7.35, 47.86 3, 57.9 1.3 C67.95 -0.4, 83.65 3.03, 88.88 3.46 C94.12 3.88, 89.27 2.89, 89.31 3.86" stroke="#000000" stroke-width="4" fill="none"></path></g><g transform="translate(271.7894458639753 507.85669252411105) rotate(0 43.9453125 14.399999999999977)"><text x="43.9453125" y="0" font-family="Cascadia, Segoe UI Emoji" font-size="24.56603773584904px" fill="#000000" text-anchor="middle" style="white-space: pre;" direction="ltr" dominant-baseline="text-before-edge">hungry</text></g><g stroke-linecap="round" transform="translate(983 446.52193416013574) rotate(0 82 82)"><path d="M68.19 0.52 C78.42 -2.56, 90.81 -0.91, 101.67 2.03 C112.53 4.97, 124.68 11.41, 133.37 18.16 C142.07 24.91, 148.79 32.87, 153.84 42.54 C158.9 52.2, 163 65.01, 163.72 76.13 C164.45 87.24, 161.97 98.64, 158.19 109.22 C154.41 119.79, 148.68 131.34, 141.06 139.58 C133.44 147.81, 122.96 154.64, 112.47 158.64 C101.97 162.64, 89.15 164.18, 78.11 163.59 C67.08 162.99, 56.19 159.9, 46.26 155.07 C36.33 150.24, 25.79 142.86, 18.52 134.59 C11.26 126.33, 5.49 116.01, 2.7 105.46 C-0.1 94.92, 0.01 82.49, 1.76 71.33 C3.52 60.16, 7.38 48.03, 13.23 38.47 C19.08 28.92, 27.59 20.12, 36.88 13.99 C46.16 7.86, 62.98 3.69, 68.94 1.69 C74.91 -0.31, 72.34 0.6, 72.67 1.99 M67.55 1.4 C77.49 -1.66, 90.82 0.36, 101.47 2.88 C112.12 5.4, 122.62 9.49, 131.46 16.54 C140.3 23.58, 149.27 35.28, 154.5 45.16 C159.73 55.05, 162.18 64.96, 162.84 75.84 C163.49 86.73, 162.24 99.87, 158.43 110.47 C154.63 121.07, 147.47 131.62, 140.01 139.44 C132.55 147.26, 123.82 153.33, 113.69 157.38 C103.56 161.43, 90.52 164.3, 79.24 163.74 C67.95 163.19, 56.09 158.87, 45.98 154.06 C35.88 149.25, 25.62 143.02, 18.61 134.87 C11.6 126.71, 7.06 115.89, 3.94 105.15 C0.83 94.41, -1.41 81.52, -0.08 70.44 C1.26 59.35, 5.84 48.26, 11.93 38.63 C18.03 29.01, 26.91 18.9, 36.48 12.69 C46.06 6.48, 64.06 2.91, 69.37 1.4 C74.68 -0.11, 68.15 2.2, 68.37 3.63" stroke="#000000" stroke-width="4" fill="none"></path></g><g transform="translate(1015.7984939427031 478.13917810283886) rotate(0 49.21875 50.400000000000034)"><text x="49.21875" y="0" font-family="Cascadia, Segoe UI Emoji" font-size="28px" fill="#000000" text-anchor="middle" style="white-space: pre;" direction="ltr" dominant-baseline="text-before-edge">dis-ap</text><text x="49.21875" y="33.6" font-family="Cascadia, Segoe UI Emoji" font-size="28px" fill="#000000" text-anchor="middle" style="white-space: pre;" direction="ltr" dominant-baseline="text-before-edge">pointe</text><text x="49.21875" y="67.2" font-family="Cascadia, Segoe UI Emoji" font-size="28px" fill="#000000" text-anchor="middle" style="white-space: pre;" direction="ltr" dominant-baseline="text-before-edge">d</text></g><g stroke-linecap="round"><g transform="translate(319.96253578417145 374.220606069985) rotate(0 0.7917410527914512 34.749205463228975)"><path d="M0.29 -0.54 C0.69 11.09, 2.32 58.54, 2.6 70.04 M-1.02 1.78 C-0.84 13.03, 0.49 56.93, 1.37 68.16" stroke="#000000" stroke-width="4" fill="none"></path></g><g transform="translate(319.96253578417145 374.220606069985) rotate(0 0.7917410527914512 34.749205463228975)"><path d="M-11.21 39.63 C-5.79 47.28, -4.75 56.46, -0.34 68.66 M-9.61 40.96 C-6.61 49.76, -1.89 59.59, 2.13 68.22" stroke="#000000" stroke-width="4" fill="none"></path></g><g transform="translate(319.96253578417145 374.220606069985) rotate(0 0.7917410527914512 34.749205463228975)"><path d="M9.28 38.59 C8.24 46.62, 2.81 56.12, -0.34 68.66 M10.89 39.92 C6.55 49.28, 3.94 59.48, 2.13 68.22" stroke="#000000" stroke-width="4" fill="none"></path></g></g><mask></mask><g stroke-linecap="round" transform="translate(306 336.52193416013574) rotate(0 17.5 17.5)"><path d="M13.93 -0.41 C17.58 -1.29, 23.16 0.63, 26.38 2.45 C29.59 4.27, 31.8 6.95, 33.23 10.48 C34.66 14.01, 35.96 20.1, 34.96 23.63 C33.95 27.15, 30.58 29.92, 27.21 31.64 C23.83 33.36, 18.67 34.41, 14.71 33.94 C10.74 33.46, 5.91 31.61, 3.42 28.8 C0.93 25.98, -0.36 20.85, -0.23 17.05 C-0.1 13.26, 1.28 8.88, 4.2 6.03 C7.11 3.18, 14.52 0.83, 17.25 -0.06 C19.98 -0.95, 20.46 0.23, 20.59 0.69 M17.14 -0.07 C20.42 -0.47, 24.08 0.93, 27.16 3.21 C30.24 5.5, 34.43 9.78, 35.62 13.64 C36.8 17.5, 35.94 22.94, 34.27 26.36 C32.6 29.79, 29.27 33.11, 25.59 34.19 C21.91 35.28, 16 34.31, 12.2 32.89 C8.4 31.47, 4.95 28.8, 2.79 25.67 C0.63 22.54, -1.18 17.51, -0.75 14.1 C-0.32 10.69, 2.58 7.61, 5.37 5.21 C8.16 2.81, 13.96 0.37, 16 -0.31 C18.05 -0.98, 17.5 0.99, 17.62 1.14" stroke="none" stroke-width="0" fill="#000000"></path><path d="M20.09 -0.54 C23.83 0.17, 28.98 3.85, 31.34 7.06 C33.71 10.26, 34.27 14.97, 34.28 18.7 C34.29 22.43, 33.79 26.82, 31.4 29.41 C29.02 32, 23.73 33.83, 19.96 34.25 C16.18 34.67, 11.8 33.75, 8.76 31.92 C5.72 30.09, 2.99 26.6, 1.72 23.26 C0.44 19.93, -0.22 15.55, 1.11 11.93 C2.45 8.3, 6.23 3.42, 9.72 1.51 C13.2 -0.4, 19.76 0.62, 22.03 0.48 C24.3 0.34, 23.52 0.2, 23.32 0.65 M25.3 2.07 C28.87 3.41, 32.44 6.82, 34.04 10.32 C35.65 13.81, 35.89 19.58, 34.93 23.04 C33.97 26.5, 31.23 28.96, 28.27 31.07 C25.3 33.18, 21.07 35.95, 17.13 35.68 C13.19 35.4, 7.62 32.45, 4.62 29.41 C1.62 26.36, -0.89 21.14, -0.88 17.43 C-0.87 13.72, 2.4 10.14, 4.68 7.14 C6.96 4.15, 9.26 0.47, 12.78 -0.55 C16.29 -1.58, 23.67 0.55, 25.78 0.99 C27.89 1.43, 25.62 1.88, 25.44 2.09" stroke="#000000" stroke-width="4" fill="none"></path></g><g mask="url(#mask-BCSgtMm2pmWwTDxoRAhGr)" stroke-linecap="round"><g transform="translate(370.80465591328607 571.642205745023) rotate(0 321.48984401849066 58.83315080031821)"><path d="M0.52 1.12 C53.51 20.25, 211.04 111.18, 318.23 115.49 C425.42 119.79, 589.67 41.73, 643.65 26.96 M-0.67 0.66 C52.14 19.9, 210.01 112.31, 317.3 116.82 C424.6 121.33, 589.01 42.64, 643.09 27.73" stroke="#000000" stroke-width="4" fill="none"></path></g><g transform="translate(370.80465591328607 571.642205745023) rotate(0 321.48984401849066 58.83315080031821)"><path d="M621.92 47.01 C626.72 41.3, 633.06 32.54, 641.17 28.12 M619.94 47.73 C626.38 41.31, 631.99 36.42, 643.45 28.62" stroke="#000000" stroke-width="4" fill="none"></path></g><g transform="translate(370.80465591328607 571.642205745023) rotate(0 321.48984401849066 58.83315080031821)"><path d="M614.96 27.71 C622.11 28.19, 630.7 25.66, 641.17 28.12 M612.98 28.43 C621.28 27.31, 628.78 27.68, 643.45 28.62" stroke="#000000" stroke-width="4" fill="none"></path></g></g><mask id="mask-BCSgtMm2pmWwTDxoRAhGr"><rect x="0" y="0" fill="#fff" width="1114.0702142086006" height="787.5219341601357"></rect><rect x="656.1875" y="670.7219341601357" fill="#000" width="65.625" height="33.6" opacity="1"></rect></mask><g transform="translate(656.1875 670.7219341601358) rotate(0 36.10699993177673 -40.246577614794546)"><text x="32.8125" y="0" font-family="Cascadia, Segoe UI Emoji" font-size="28px" fill="#000000" text-anchor="middle" style="white-space: pre;" direction="ltr" dominant-baseline="text-before-edge">FEED</text></g><g mask="url(#mask-uq04BkBkaJT7OizMTuu8s)" stroke-linecap="round"><g transform="translate(356.4675464172831 350.43239557621666) rotate(180 325.26298340624453 56.38997351791579)"><path d="M1.11 0.06 C53.9 18.89, 207.88 113.37, 316.08 113.73 C424.28 114.09, 594.85 20.62, 650.29 2.24 M0.24 -0.95 C53.44 17.47, 209.98 111.28, 318.28 112.01 C426.59 112.75, 595.01 21.91, 650.07 3.48" stroke="#000000" stroke-width="4" fill="none"></path></g><g transform="translate(356.4675464172831 350.43239557621666) rotate(180 325.26298340624453 56.38997351791579)"><path d="M628.16 22.23 C634.7 20.33, 638.63 12.59, 651.82 5.28 M628.5 23.16 C634.76 17.21, 641.81 9.55, 650.3 3.24" stroke="#000000" stroke-width="4" fill="none"></path></g><g transform="translate(356.4675464172831 350.43239557621666) rotate(180 325.26298340624453 56.38997351791579)"><path d="M620.21 3.31 C628.85 6.04, 634.76 3.01, 651.82 5.28 M620.55 4.24 C629.42 4.49, 639.08 3.04, 650.3 3.24" stroke="#000000" stroke-width="4" fill="none"></path></g></g><mask id="mask-uq04BkBkaJT7OizMTuu8s"><rect x="0" y="0" fill="#fff" width="1105.7080710506382" height="563.3853592750488"></rect><rect x="665.3312231924933" y="333.4593789132161" fill="#000" width="49.21875" height="33.6" opacity="1"></rect></mask><g transform="translate(665.3312231924933 333.45937891321614) rotate(0 16.39930663103428 73.36299018091631)"><text x="24.609375" y="0" font-family="Cascadia, Segoe UI Emoji" font-size="28px" fill="#000000" text-anchor="middle" style="white-space: pre;" direction="ltr" dominant-baseline="text-before-edge">PET</text></g><g stroke-linecap="round" transform="translate(10 354.52193416013574) rotate(0 17.5 17.5)"><path d="M22.07 1.43 C25.55 1.91, 29.43 4.09, 31.63 6.81 C33.84 9.53, 35.69 14.12, 35.29 17.76 C34.88 21.39, 31.81 25.82, 29.2 28.63 C26.59 31.44, 23.21 34.16, 19.61 34.62 C16.02 35.07, 10.79 33.25, 7.62 31.34 C4.45 29.44, 1.61 26.77, 0.59 23.19 C-0.43 19.62, 0.07 13.49, 1.49 9.89 C2.91 6.29, 5.19 2.83, 9.1 1.58 C13 0.33, 21.83 2.17, 24.93 2.38 C28.03 2.59, 27.77 2.81, 27.7 2.84 M15.32 -1.12 C18.77 -1.59, 24.75 1.26, 27.81 3.39 C30.88 5.52, 32.88 7.98, 33.71 11.67 C34.55 15.35, 34.17 21.92, 32.84 25.5 C31.51 29.08, 29.17 31.45, 25.75 33.13 C22.32 34.82, 15.99 36.59, 12.28 35.64 C8.57 34.68, 5.58 30.49, 3.5 27.42 C1.41 24.36, -0.56 20.92, -0.2 17.22 C0.15 13.53, 3 7.89, 5.62 5.26 C8.23 2.63, 13.52 2, 15.51 1.44 C17.5 0.87, 17.49 1.73, 17.54 1.89" stroke="none" stroke-width="0" fill="#000000"></path><path d="M13.19 -0.25 C16.63 -1.44, 21.13 -0.07, 24.55 1.77 C27.97 3.61, 31.94 7.37, 33.7 10.81 C35.46 14.24, 36.02 18.9, 35.09 22.37 C34.15 25.83, 31.09 29.48, 28.09 31.61 C25.1 33.74, 20.82 35.35, 17.14 35.17 C13.46 34.98, 9.01 33.06, 6.02 30.49 C3.03 27.92, -0.33 23.51, -0.8 19.75 C-1.27 16, 0.44 11.37, 3.2 7.96 C5.96 4.54, 13.43 0.43, 15.74 -0.73 C18.04 -1.89, 17.09 0.52, 17.02 0.99 M12.45 2.12 C15.89 0.48, 21.22 -0.69, 24.77 0.66 C28.32 2, 32.16 6.67, 33.74 10.18 C35.33 13.68, 35.1 18.11, 34.28 21.7 C33.45 25.29, 31.6 29.42, 28.78 31.72 C25.97 34.02, 20.96 35.44, 17.38 35.5 C13.81 35.55, 10.17 34.35, 7.33 32.04 C4.49 29.73, 0.91 25.71, 0.33 21.66 C-0.26 17.61, 2.12 11.32, 3.83 7.74 C5.54 4.17, 9.05 1.38, 10.6 0.21 C12.14 -0.96, 12.66 0.3, 13.09 0.74" stroke="#000000" stroke-width="4" fill="none"></path></g><g stroke-linecap="round"><g transform="translate(27.650958056547495 392.8376206867074) rotate(0 42.10778469364746 28.854999808557125)"><path d="M-0.85 -0.97 C0.91 6.48, -4.04 35.91, 10.28 45.85 C24.6 55.79, 72.78 56.71, 85.07 58.68 M0.9 1.13 C2.53 8.79, -4.71 35.04, 9.3 44.34 C23.3 53.64, 72.42 54.49, 84.93 56.91" stroke="#000000" stroke-width="4" fill="none"></path></g><g transform="translate(27.650958056547495 392.8376206867074) rotate(0 42.10778469364746 28.854999808557125)"><path d="M54.2 64.05 C65.67 64.38, 73.52 60.66, 85.09 55.34 M56.37 63.8 C62.07 61.93, 69.4 61.15, 84.19 57.8" stroke="#000000" stroke-width="4" fill="none"></path></g><g transform="translate(27.650958056547495 392.8376206867074) rotate(0 42.10778469364746 28.854999808557125)"><path d="M56.35 43.64 C67.43 49.55, 74.68 51.42, 85.09 55.34 M58.52 43.39 C63.77 46.03, 70.62 49.76, 84.19 57.8" stroke="#000000" stroke-width="4" fill="none"></path></g></g><mask></mask><g stroke-linecap="round" transform="translate(1185 829.5219341601357) rotate(0 82 82)"><path d="M77.13 0.43 C87.74 -1.24, 100.47 1.88, 111.05 5.78 C121.63 9.67, 132.75 15.93, 140.6 23.8 C148.45 31.68, 154.26 42.51, 158.14 53.04 C162.02 63.58, 164.53 76.14, 163.88 87 C163.24 97.87, 159.25 108.31, 154.26 118.21 C149.27 128.11, 142.42 139.32, 133.93 146.39 C125.43 153.47, 113.99 157.82, 103.28 160.67 C92.56 163.53, 80.49 165.23, 69.64 163.53 C58.79 161.83, 47.68 156.51, 38.19 150.46 C28.7 144.41, 18.99 136.52, 12.7 127.22 C6.42 117.92, 2.03 105.66, 0.47 94.65 C-1.08 83.64, 0.56 71.78, 3.36 61.15 C6.15 50.53, 10.49 39.76, 17.24 30.91 C24 22.06, 32.57 13.06, 43.89 8.07 C55.2 3.08, 76.81 1.98, 85.13 0.96 C93.45 -0.06, 93.73 0.6, 93.8 1.94 M99.92 1.83 C110.78 3.14, 123.14 9.95, 132.22 16.8 C141.31 23.66, 149.27 33.54, 154.42 42.96 C159.57 52.38, 162.37 62.27, 163.14 73.32 C163.91 84.38, 162.41 98.62, 159.04 109.27 C155.68 119.93, 150.38 129.38, 142.95 137.25 C135.53 145.13, 124.59 151.95, 114.47 156.52 C104.36 161.1, 93.51 164.94, 82.26 164.72 C71.02 164.5, 57.35 160.16, 46.99 155.18 C36.64 150.21, 27.34 143.09, 20.12 134.86 C12.9 126.64, 6.99 116.08, 3.67 105.83 C0.36 95.58, -1.02 84.54, 0.22 73.37 C1.47 62.2, 5.3 48.34, 11.16 38.82 C17.02 29.29, 26.34 22.51, 35.38 16.25 C44.42 9.99, 54.83 3.48, 65.41 1.26 C75.99 -0.97, 92.96 2.55, 98.85 2.91 C104.75 3.26, 100.78 2.17, 100.81 3.38" stroke="#000000" stroke-width="4" fill="none"></path></g><g transform="translate(1234.204743942703 894.7391781028389) rotate(0 32.8125 16.799999999999955)"><text x="32.8125" y="0" font-family="Cascadia, Segoe UI Emoji" font-size="28px" fill="#000000" text-anchor="middle" style="white-space: pre;" direction="ltr" dominant-baseline="text-before-edge">dead</text></g><g mask="url(#mask-M7jXHyexfizCAyGUSrDlZ)" stroke-linecap="round"><g transform="translate(764.3726687035337 851.4131124967308) rotate(0 208.1392420282998 57.82751232943883)"><path d="M-1.09 -0.09 C14.22 19.16, 21.36 101.92, 91.11 114.59 C160.85 127.25, 363.14 82.5, 417.37 75.9 M0.53 -1.18 C15.71 17.78, 20.55 100.21, 89.88 112.72 C159.22 125.22, 362.16 79.97, 416.55 73.84" stroke="#000000" stroke-width="4" fill="none"></path></g><g transform="translate(764.3726687035337 851.4131124967308) rotate(0 208.1392420282998 57.82751232943883)"><path d="M390.27 87.69 C397.48 85.15, 403.71 80.24, 415.93 74.3 M390.94 89.36 C401.24 82.11, 410.31 78.21, 416.4 74.21" stroke="#000000" stroke-width="4" fill="none"></path></g><g transform="translate(764.3726687035337 851.4131124967308) rotate(0 208.1392420282998 57.82751232943883)"><path d="M386.92 67.44 C394.77 69.71, 401.8 69.57, 415.93 74.3 M387.59 69.11 C399.08 69.81, 409.46 73.83, 416.4 74.21" stroke="#000000" stroke-width="4" fill="none"></path></g></g><mask id="mask-M7jXHyexfizCAyGUSrDlZ"><rect x="0" y="0" fill="#fff" width="1281.8511686253996" height="1065.5219341601357"></rect><rect x="732.953125" y="931.9219341601357" fill="#000" width="246.09375" height="67.2" opacity="1"></rect></mask><g transform="translate(732.953125 931.9219341601358) rotate(0 239.5587857318335 -22.68130933396617)"><text x="123.046875" y="0" font-family="Cascadia, Segoe UI Emoji" font-size="28px" fill="#000000" text-anchor="middle" style="white-space: pre;" direction="ltr" dominant-baseline="text-before-edge">ALWAYS</text><text x="123.046875" y="33.6" font-family="Cascadia, Segoe UI Emoji" font-size="28px" fill="#000000" text-anchor="middle" style="white-space: pre;" direction="ltr" dominant-baseline="text-before-edge">[no lives left]</text></g><g mask="url(#mask-0FD21MI3TmuAFV-cwD3_K)" stroke-linecap="round"><g transform="translate(845.9415324499805 191.07542009153545) rotate(0 -171.81380299039506 -73.7839594613129)"><path d="M-0.21 -0.25 C2.9 -14.38, 46.49 -60.61, 17.75 -85.24 C-11 -109.86, -109.57 -147.74, -172.66 -148 C-235.75 -148.26, -332.27 -111.53, -360.8 -86.79 C-389.34 -62.06, -346.61 -14.37, -343.85 0.43 M-1.78 -1.42 C1.22 -15.42, 44.71 -60.03, 16.62 -84.29 C-11.47 -108.54, -107.4 -146.72, -170.34 -146.95 C-233.28 -147.18, -331.92 -110.19, -361.02 -85.65 C-390.12 -61.11, -347.39 -14.2, -344.95 0.28" stroke="#000000" stroke-width="4" fill="none"></path></g><g transform="translate(845.9415324499805 191.07542009153545) rotate(0 -171.81380299039506 -73.7839594613129)"><path d="M-367.06 -21 C-363.71 -17.56, -357.82 -12.55, -344.83 1.46 M-366.64 -20.67 C-361.83 -15.71, -358.22 -11.55, -345.49 0.81" stroke="#000000" stroke-width="4" fill="none"></path></g><g transform="translate(845.9415324499805 191.07542009153545) rotate(0 -171.81380299039506 -73.7839594613129)"><path d="M-348.67 -30.1 C-349.49 -24.65, -347.74 -17.59, -344.83 1.46 M-348.25 -29.77 C-347.35 -22.78, -347.68 -16.67, -345.49 0.81" stroke="#000000" stroke-width="4" fill="none"></path></g></g><mask id="mask-0FD21MI3TmuAFV-cwD3_K"><rect x="0" y="0" fill="#fff" width="1323.9415324499805" height="440.01047030926657"></rect><rect x="584.1439134366256" y="10" fill="#000" width="180.46875" height="67.2" opacity="1"></rect></mask><g transform="translate(584.1439134366256 10) rotate(0 89.9838160229599 107.29146063022255)"><text x="90.234375" y="0" font-family="Cascadia, Segoe UI Emoji" font-size="28px" fill="#000000" text-anchor="middle" style="white-space: pre;" direction="ltr" dominant-baseline="text-before-edge">DIE</text><text x="90.234375" y="33.6" font-family="Cascadia, Segoe UI Emoji" font-size="28px" fill="#000000" text-anchor="middle" style="white-space: pre;" direction="ltr" dominant-baseline="text-before-edge">/do -1 life</text></g><g stroke-linecap="round" transform="translate(1196 841.5219341601357) rotate(0 71 71)"><path d="M52.72 2.27 C61.73 -1.34, 73.19 -0.33, 83.4 1.69 C93.61 3.7, 105.54 8.37, 113.97 14.35 C122.4 20.32, 129.37 28.59, 133.97 37.51 C138.57 46.43, 141.3 57.74, 141.57 67.89 C141.83 78.04, 139.67 88.85, 135.53 98.39 C131.4 107.93, 124.48 118.12, 116.77 125.14 C109.06 132.16, 98.97 138.05, 89.25 140.51 C79.54 142.97, 68.43 141.95, 58.49 139.9 C48.54 137.85, 38.13 134.26, 29.6 128.2 C21.07 122.14, 12.25 112.8, 7.3 103.56 C2.35 94.33, 0.17 83.02, -0.09 72.79 C-0.35 62.56, 1.73 51.29, 5.75 42.17 C9.77 33.06, 15.17 25.09, 24.02 18.1 C32.87 11.12, 51.88 2.94, 58.87 0.25 C65.86 -2.44, 65.62 0.78, 65.94 1.95 M74.54 -0.33 C84.32 -0.71, 97.11 3.66, 106.34 8.82 C115.58 13.98, 124.33 22.29, 129.95 30.64 C135.56 38.99, 138.35 48.84, 140.03 58.91 C141.72 68.98, 142.65 81.03, 140.04 91.08 C137.43 101.13, 131.2 111.73, 124.35 119.22 C117.5 126.72, 108.75 132.46, 98.94 136.06 C89.12 139.65, 76.12 141.36, 65.47 140.8 C54.81 140.23, 44 137.31, 35.02 132.65 C26.03 127.98, 17.48 121.09, 11.56 112.79 C5.64 104.48, 1.02 93, -0.5 82.8 C-2.01 72.61, -0.88 61.4, 2.47 51.64 C5.81 41.88, 12.44 31.99, 19.56 24.22 C26.68 16.45, 35.89 9.27, 45.17 5.02 C54.46 0.77, 70.34 -0.58, 75.28 -1.28 C80.22 -1.98, 74.63 -0.68, 74.8 0.81" stroke="#000000" stroke-width="4" fill="none"></path></g></svg>